<?xml version="1.0" encoding="UTF-8"?>
<svg xmlns="http://www.w3.org/2000/svg" viewBox="0 0 320 320" width="320" height="320" role="img">

  <circle cx="160" cy="160" r="154" fill="#344C42"/>
  <circle cx="160" cy="160" r="150" fill="none" stroke="#5D776B" stroke-width="4"/>
  <svg x="90" y="34" width="140" height="252" viewBox="-0.7 -0.2 11.3 21.2" preserveAspectRatio="xMidYMid meet" aria-hidden="true">
    <path d="M9.2 15.08c0,0 -0.05,-0.88 0.14,-0.9 0.18,0.02 0.14,0.9 0.14,0.9l-0.28 0zm0 2.26l-0.5 0c0,0 0,-0.95 0,-1.35 0,-0.14 0.07,-0.39 0.25,-0.41 0.17,-0.02 0.25,0.26 0.25,0.41 0,0.44 0,1.35 0,1.35l0 0zm-0.51 -2.88c0,-0.06 0.03,-0.17 0.12,-0.17 0.08,0 0.1,0.11 0.1,0.17l0 0.58 -0.22 0c0,0 0,-0.4 0,-0.58l0 0zm0.2 -0.55l-0.16 0c0,-0.14 0,-0.28 0,-0.42 0,-0.03 0.05,-0.07 0.07,-0.1 0.03,0.04 0.08,0.08 0.09,0.12 0.01,0.13 0,0.26 0,0.4l0 0zm-0.23 -0.83c0,0 0,-0.57 0,-0.82 0,-0.1 0.04,-0.26 0.13,-0.26 0.1,0 0.12,0.17 0.12,0.26l0 0.82 -0.25 0zm-0.07 -4.76c0,-0.08 0.03,-0.2 0.1,-0.2 0.08,0 0.09,0.13 0.09,0.2l0 0.67 -0.19 0c0,0 0,-0.47 0,-0.67l0 0zm0.34 3.28l-0.26 0c0,0 -0.05,-0.41 0.13,-0.43 0.17,0.01 0.13,0.43 0.13,0.43zm0.1 -3.28c0,-0.08 0.03,-0.2 0.1,-0.2 0.07,0 0.09,0.13 0.09,0.2 0,0.22 0,0.66 0,0.66l-0.19 0 0 -0.66zm0.29 2.86c0.18,0.01 0.13,0.43 0.13,0.43l-0.25 0c0,0 -0.05,-0.42 0.13,-0.43l-0.01 0zm0.16 2.77l-0.29 0c0,0 0,-1.04 0,-1.49 0,-0.17 0.04,-0.43 0.15,-0.46 0.1,-0.02 0.14,0.29 0.14,0.46l0 1.49zm-1.04 -6.12c0,0.1 -0.04,0.2 -0.11,0.27 -0.08,0.08 -0.17,0.12 -0.28,0.12 -0.1,0 -0.2,-0.04 -0.27,-0.12 -0.08,-0.07 -0.12,-0.17 -0.12,-0.27 0,-0.11 0.04,-0.2 0.12,-0.28 0.07,-0.07 0.17,-0.11 0.27,-0.11 0.11,0 0.2,0.04 0.28,0.11 0.07,0.08 0.11,0.17 0.11,0.28zm-0.04 7.21l-0.21 0 0 -0.57c0,-0.07 0.03,-0.18 0.11,-0.18 0.08,0 0.1,0.11 0.1,0.18 0,0.18 0,0.57 0,0.57l0 0zm-0.27 -3.44c0,0 -0.05,-0.41 0.13,-0.43 0.18,0.01 0.13,0.43 0.13,0.43l-0.26 0zm0.24 2.31l-0.16 0c0,-0.14 0,-0.28 0,-0.41 0,-0.04 0.05,-0.07 0.07,-0.11 0.03,0.04 0.08,0.08 0.09,0.12 0.01,0.13 0,0.26 0,0.4l0 0zm-0.23 -0.83l0 -0.82c0,-0.1 0.04,-0.26 0.14,-0.26 0.09,0 0.11,0.17 0.11,0.26l0 0.82 -0.25 0zm0.25 3.84l-0.35 0c0,0 0,-0.68 0,-0.96 0,-0.11 0.05,-0.28 0.17,-0.29 0.13,-0.01 0.18,0.19 0.18,0.29 0,0.31 0,0.96 0,0.96zm-0.49 -1.88l-0.22 0c0,0 0,-0.41 0,-0.58 0,-0.06 0.03,-0.17 0.12,-0.17 0.08,0 0.1,0.11 0.1,0.17l0 0.58 0 0zm-0.17 2.3l-0.49 0c0,0 0,-0.95 0,-1.35 0,-0.14 0.06,-0.39 0.24,-0.41 0.17,-0.02 0.25,0.26 0.25,0.41 0,0.44 0,1.35 0,1.35zm-0.56 -2.88c0,-0.06 0.04,-0.17 0.12,-0.17 0.08,0 0.1,0.11 0.1,0.17l0 0.58 -0.22 0c0,0 0,-0.4 0,-0.58l0 0zm0 -0.97c0,-0.03 0.05,-0.07 0.08,-0.1 0.03,0.04 0.08,0.08 0.08,0.12 0.01,0.13 0,0.26 0,0.4l-0.16 0c0,-0.14 0,-0.28 0,-0.42l0 0zm-0.05 -0.41c0,0 0,-0.57 0,-0.82 0,-0.1 0.04,-0.26 0.13,-0.26 0.1,0 0.12,0.17 0.12,0.26 0,0.27 0,0.82 0,0.82l-0.25 0zm-0.05 -1.48c0,0 -0.05,-0.41 0.13,-0.43 0.18,0.01 0.13,0.43 0.13,0.43l-0.26 0zm-0.05 -2.62l-0.19 0 0 -0.66c0,-0.08 0.03,-0.2 0.1,-0.2 0.07,0 0.09,0.13 0.09,0.2 0,0.22 0,0.66 0,0.66zm-0.08 7.1c0,0 -0.26,0 -0.43,0 0,-0.15 0,-0.39 0.2,-0.45 0.29,0.06 0.23,0.45 0.23,0.45l0 0zm-0.1 -1l-0.28 0c0,0 -0.05,-0.88 0.15,-0.9 0.19,0.02 0.14,0.9 0.14,0.9l-0.01 0zm0 -1.13l-0.28 0 0 -1.49c0,-0.17 0.03,-0.43 0.14,-0.46 0.11,-0.02 0.15,0.29 0.15,0.46l0 1.49 -0.01 0zm-0.19 -2.67c0.16,0.03 0.17,0.32 0.17,0.43l-0.31 0c0.01,-0.13 -0.01,-0.39 0.15,-0.43l-0.01 0zm0.62 -2.96c0,-0.08 0.03,-0.2 0.1,-0.2 0.07,0 0.09,0.13 0.09,0.2l0 0.66 -0.19 0c0,0 0,-0.46 0,-0.66zm0.59 3.28l-0.26 0c0,0 -0.05,-0.41 0.13,-0.43 0.18,0.01 0.13,0.43 0.13,0.43zm-0.01 2.31l-0.16 0c0,-0.14 0,-0.28 0,-0.41 0,-0.04 0.05,-0.07 0.07,-0.11 0.03,0.04 0.08,0.08 0.09,0.12 0.01,0.13 0,0.26 0,0.4l0 0zm-0.22 -0.83c0,0 0,-0.57 0,-0.82 0,-0.1 0.04,-0.26 0.13,-0.26 0.1,0 0.12,0.17 0.12,0.26 0,0.27 0,0.82 0,0.82l-0.25 0zm-1.37 4.26l-0.49 0c0,0 0,-0.95 0,-1.35 0,-0.14 0.07,-0.39 0.25,-0.41 0.17,-0.02 0.25,0.26 0.25,0.41 0,0.44 0,1.35 0,1.35l-0.01 0zm-0.59 -2.23l0 -0.52c0,0 -0.01,-0.19 0.07,-0.19 0.09,0 0.08,0.19 0.08,0.19l0 0.52 -0.15 0zm-0.09 -0.98c0,-0.14 0,-0.29 0,-0.41 0,-0.04 0.05,-0.07 0.07,-0.11 0.03,0.04 0.08,0.08 0.08,0.12 0.01,0.13 0,0.26 0,0.4l-0.15 0zm-0.03 -1.05c0,0 0,-0.57 0,-0.82 0,-0.1 0.03,-0.26 0.11,-0.26 0.07,0 0.09,0.17 0.09,0.26 0,0.27 0,0.82 0,0.82l-0.2 0zm-0.05 -1.35l0 -0.8c0,0 -0.01,-0.29 0.13,-0.29 0.14,0 0.12,0.29 0.12,0.29l0 0.8 -0.25 0zm0.46 2.67c0.09,0 0.08,0.19 0.08,0.19l0 0.52 -0.15 0 0 -0.52c0,0 -0.01,-0.19 0.07,-0.19zm0.1 -3.06c0.13,0.03 0.14,0.32 0.14,0.44l-0.25 0c0.01,-0.13 -0.01,-0.4 0.11,-0.44l0 0zm0.03 2.79c0,-0.14 0,-0.29 0,-0.42 0,-0.03 0.05,-0.06 0.07,-0.1 0.03,0.04 0.08,0.08 0.09,0.12 0.01,0.13 0,0.26 0,0.4l-0.16 0zm0.09 0.27c0.09,0 0.08,0.19 0.08,0.19l0 0.52 -0.15 0 0 -0.52c0,0 -0.01,-0.19 0.08,-0.19l-0.01 0zm0.08 -2.14c0,0.27 0,0.82 0,0.82l-0.21 0c0,0 0,-0.57 0,-0.82 0,-0.1 0.04,-0.26 0.11,-0.26 0.08,0 0.1,0.17 0.1,0.26l0 0zm-0.95 5.08l-0.5 0c0,0 0,-0.95 0,-1.35 0,-0.14 0.07,-0.39 0.25,-0.41 0.17,-0.02 0.25,0.26 0.25,0.41 0,0.44 0,1.35 0,1.35l0 0zm-0.57 -2.74l0 0.51 -0.15 0 0 -0.51c0,0 -0.01,-0.2 0.08,-0.2 0.09,0 0.07,0.2 0.07,0.2l0 0zm-0.19 -0.89c0,-0.04 0.05,-0.07 0.08,-0.1 0.03,0.04 0.08,0.07 0.08,0.11 0.01,0.13 0,0.27 0,0.41l-0.16 0c0,-0.15 0,-0.29 0,-0.42l0 0zm-0.02 -0.63c0,0 0,-0.58 0,-0.83 0,-0.09 0.04,-0.25 0.11,-0.25 0.08,0 0.1,0.16 0.1,0.25 0,0.27 0,0.83 0,0.83l-0.21 0zm0.36 1.31c0.09,0 0.07,0.2 0.07,0.2l0 0.51 -0.14 0 0 -0.51c0,0 -0.01,-0.2 0.08,-0.2l-0.01 0zm-0.27 -4.5c0,-0.2 0.07,-0.52 0.27,-0.55 0.19,-0.02 0.27,0.35 0.27,0.55 0,0.58 0,1.79 0,1.79l-0.54 0c0,0 0,-1.26 0,-1.79zm0.45 4.24c0,-0.14 0,-0.29 0,-0.42 0,-0.03 0.04,-0.06 0.07,-0.1 0.03,0.04 0.08,0.08 0.08,0.12 0.01,0.13 0,0.26 0,0.4l-0.15 0zm0.04 0.27c0.09,0 0.08,0.19 0.08,0.19l0 0.52 -0.15 0 0 -0.52c0,0 -0.01,-0.19 0.08,-0.19l-0.01 0zm0.14 -2.14c0,0.27 0,0.82 0,0.82l-0.21 0c0,0 0,-0.57 0,-0.82 0,-0.1 0.03,-0.26 0.11,-0.26 0.08,0 0.1,0.17 0.1,0.26l0 0zm-0.89 5.08l-0.5 0c0,0 0,-0.95 0,-1.35 0,-0.14 0.06,-0.39 0.24,-0.41 0.18,-0.02 0.25,0.26 0.26,0.41 0,0.44 0,1.35 0,1.35l0 0zm-0.54 -2.94c0.09,0 0.07,0.19 0.07,0.19l0 0.52 -0.14 0 0 -0.52c0,0 -0.01,-0.19 0.08,-0.19l-0.01 0zm-0.09 -1.32l-0.21 0c0,0 0,-0.57 0,-0.82 0,-0.1 0.03,-0.26 0.11,-0.26 0.08,0 0.1,0.17 0.1,0.26 0,0.27 0,0.82 0,0.82zm-0.04 1.05l-0.17 0c0,-0.14 0,-0.29 0,-0.42 0,-0.03 0.05,-0.06 0.07,-0.1 0.03,0.04 0.09,0.08 0.09,0.12 0.01,0.13 0,0.26 0,0.4l0.01 0zm-0.02 0.46l0 0.52 -0.15 0 0 -0.52c0,0 -0.01,-0.19 0.08,-0.19 0.08,0 0.07,0.19 0.07,0.19zm-0.25 1.49c0,0 -0.26,0 -0.44,0 0,-0.15 0,-0.39 0.21,-0.45 0.29,0.06 0.23,0.45 0.23,0.45l0 0zm-0.25 -5.05c0.19,0.01 0.15,0.67 0.15,0.67l-0.29 0c0,0 -0.05,-0.66 0.14,-0.67zm0 3.15c0.19,0.02 0.15,0.9 0.15,0.9l-0.28 0c0,0 -0.05,-0.88 0.14,-0.9l-0.01 0zm-0.14 -1.72c0,-0.17 0.04,-0.43 0.14,-0.46 0.1,-0.02 0.14,0.29 0.14,0.46 0,0.49 0,1.49 0,1.49l-0.28 0c0,0 0,-1.04 0,-1.49zm0.67 -1.12c0.13,0.03 0.13,0.32 0.13,0.44l-0.25 0c0.01,-0.13 -0.01,-0.4 0.12,-0.44l0 0zm0.34 3.06c0.09,0 0.07,0.19 0.07,0.19l0 0.52 -0.15 0 0 -0.52c0,0 -0.01,-0.19 0.08,-0.19l0 0zm0.16 -0.27l-0.16 0c0,-0.14 0,-0.29 0,-0.42 0,-0.03 0.05,-0.06 0.07,-0.1 0.03,0.04 0.09,0.08 0.09,0.12 0.01,0.13 0,0.26 0,0.4l0 0zm-0.17 -1.87c0,-0.1 0.03,-0.26 0.11,-0.26 0.08,0 0.09,0.17 0.09,0.26 0,0.27 0,0.82 0,0.82l-0.2 0c0,0 0,-0.57 0,-0.82l0 0zm0.13 -1.62c0.13,0 0.12,0.29 0.12,0.29l0 0.8 -0.25 0 0 -0.8c0,0 -0.01,-0.29 0.13,-0.29l0 0zm-1.37 1.06l-0.27 0c0,0 -0.06,-0.66 0.14,-0.67 0.19,0.01 0.14,0.67 0.14,0.67l-0.01 0zm-0.05 1.38l-0.25 0c0,0 0,-0.57 0,-0.82 0,-0.1 0.04,-0.26 0.13,-0.26 0.1,0 0.12,0.17 0.12,0.26 0,0.27 0,0.82 0,0.82l0 0zm-0.2 0.41c0,-0.03 0.05,-0.07 0.07,-0.1 0.03,0.04 0.08,0.08 0.09,0.12 0.01,0.13 0,0.26 0,0.4l-0.17 0c0,-0.14 0,-0.28 0,-0.42l0.01 0zm0.2 1.55l-0.22 0 0 -0.58c0,-0.06 0.04,-0.17 0.12,-0.17 0.08,0 0.1,0.11 0.1,0.17 0,0.19 0,0.58 0,0.58l0 0zm-0.14 2.3l-0.5 0c0,0 0,-0.95 0,-1.35 0,-0.14 0.06,-0.39 0.24,-0.41 0.17,-0.02 0.26,0.26 0.26,0.41 0,0.44 0,1.35 0,1.35zm-0.58 -2.3c0,0 0,-0.41 0,-0.58 0,-0.06 0.03,-0.17 0.12,-0.17 0.08,0 0.1,0.11 0.1,0.17l0 0.58 -0.22 0zm0.18 -1.13l-0.17 0c0,-0.14 0,-0.28 0,-0.42 0,-0.03 0.05,-0.07 0.08,-0.1 0.02,0.04 0.08,0.08 0.08,0.12 0.01,0.13 0,0.26 0,0.4l0.01 0zm-0.22 -0.83c0,0 0,-0.57 0,-0.82 0,-0.1 0.04,-0.26 0.13,-0.26 0.1,0 0.12,0.17 0.12,0.26 0,0.27 0,0.82 0,0.82l-0.25 0zm-0.21 -3.87c0.01,-0.13 -0.01,-0.4 0.12,-0.44 0.14,0.03 0.13,0.33 0.13,0.44l-0.25 0zm0.05 7.7l-0.35 0c0,0 0,-0.67 0,-0.95 0,-0.11 0.05,-0.28 0.17,-0.29 0.13,-0.01 0.18,0.19 0.18,0.29 0,0.31 0,0.95 0,0.95zm-0.36 -4.65c0,-0.1 0.04,-0.26 0.13,-0.26 0.1,0 0.12,0.17 0.12,0.26l0 0.82 -0.25 0c0,0 0,-0.57 0,-0.82zm-0.34 -1.62c0,0 0,-0.4 0,-0.77 0,-0.14 0.08,-0.36 0.27,-0.38 0.2,-0.02 0.28,0.24 0.28,0.38 0,0.4 0,0.77 0,0.77l-0.55 0zm0.13 1.06l-0.28 0c0,0 -0.05,-0.66 0.15,-0.67 0.19,0.01 0.14,0.67 0.14,0.67l-0.01 0zm-0.03 3.34l-0.21 0 0 -0.58c0,-0.06 0.03,-0.17 0.12,-0.17 0.08,0 0.1,0.11 0.1,0.17 0,0.19 0,0.58 0,0.58l-0.01 0zm-0.02 2.3l-0.5 0c0,0 0,-0.95 0,-1.35 0,-0.14 0.07,-0.39 0.24,-0.41 0.18,-0.02 0.26,0.26 0.26,0.41 0,0.44 0,1.35 0,1.35zm-0.74 -2.26c0,0 -0.05,-0.88 0.14,-0.9 0.19,0.02 0.15,0.9 0.15,0.9l-0.29 0zm0 -2.62c0,-0.17 0.04,-0.43 0.14,-0.46 0.1,-0.02 0.14,0.29 0.14,0.46 0,0.49 0,1.49 0,1.49l-0.29 0c0,0 0,-1.04 0,-1.49l0.01 0zm0.14 -1.43c0.19,0.01 0.15,0.67 0.15,0.67l-0.29 0c0,0 -0.05,-0.66 0.14,-0.67zm0.6 2.89l-0.18 0c0,-0.15 0,-0.28 0,-0.42 0,-0.04 0.05,-0.07 0.08,-0.1 0.03,0.03 0.08,0.07 0.08,0.11 0.01,0.13 0,0.27 0,0.41l0.02 0zm-0.25 -1.66c0,-0.1 0.04,-0.26 0.13,-0.26 0.1,0 0.12,0.17 0.12,0.26l0 0.82 -0.25 0 0 -0.82zm0.58 1.23c0,-0.03 0.05,-0.07 0.07,-0.1 0.04,0.04 0.09,0.08 0.09,0.12 0.01,0.13 0,0.26 0,0.4l-0.16 0c0,-0.14 0,-0.28 0,-0.42l0 0zm-0.02 0.97c0,-0.06 0.04,-0.17 0.12,-0.17 0.08,0 0.1,0.11 0.1,0.17l0 0.58 -0.22 0c0,0 0,-0.4 0,-0.58l0 0zm0.25 -2.76l-0.27 0c0,0 -0.05,-0.66 0.13,-0.67 0.19,0.01 0.15,0.67 0.15,0.67l-0.01 0zm0.52 0l-0.28 0c0,0 -0.05,-0.66 0.15,-0.67 0.19,0.01 0.14,0.67 0.14,0.67l-0.01 0zm-0.2 -1.83c0,-0.14 0.07,-0.36 0.27,-0.38 0.19,-0.02 0.28,0.24 0.29,0.38 0,0.4 0,0.77 0,0.77l-0.56 0c0,0 0,-0.4 0,-0.77zm7.62 6.86c-0.05,-0.02 -0.11,-0.02 -0.16,-0.03 -0.02,-0.01 -0.03,-0.01 -0.04,-0.02 -0.01,-0.01 -0.02,-0.02 -0.02,-0.03 -0.01,-0.02 -0.01,-0.04 0,-0.06 0.03,-0.27 0.39,-0.49 -0.04,-0.62 -0.01,-0.08 0,-0.16 0.02,-0.23 0.03,-0.07 0.06,-0.14 0.12,-0.2 0.06,-0.07 0.1,-0.16 0.11,-0.25 0,-0.23 0.05,-0.5 0,-0.72 -0.04,-0.2 -0.04,-0.41 0.02,-0.6 0.04,-0.15 0.09,-0.31 0.01,-0.44 -0.01,-0.02 -0.03,-0.04 -0.04,-0.06 -0.02,-0.06 -0.02,-0.13 0,-0.19 0.05,-0.19 0.08,-0.37 0.1,-0.57 0,-0.21 0.03,-0.42 0.03,-0.63 0,-0.38 -0.03,-0.76 -0.04,-1.14 0,-0.24 0.02,-0.48 -0.13,-0.69 -0.03,-0.05 -0.05,-0.11 -0.04,-0.17 0,-0.64 -0.01,-1.38 -0.02,-2.02 0,-0.1 0,-0.2 0,-0.2l0.24 -0.29c0,0 -0.32,-0.56 -0.42,-0.78 -0.47,-1.01 -0.77,-2.08 -1.05,-3.16 -0.15,-0.53 -0.26,-1.07 -0.32,-1.62 -0.03,-0.28 -0.02,-1.06 -0.03,-1.17 0,-0.03 0,-0.07 0,-0.1 0.03,-0.04 0.05,-0.09 0.07,-0.14 0,-0.07 -0.08,-0.15 -0.03,-0.21 0.05,-0.05 0.2,-0.01 0.27,-0.01 0.1,0 0.19,-0.04 0.27,-0.11 0,0 0.01,-0.01 0.01,-0.02 0.01,-0.01 0.01,-0.02 0,-0.03 0,-0.03 0,-0.06 -0.01,-0.09 -0.01,-0.01 -0.02,-0.02 -0.03,-0.03 0,0 -0.01,0 -0.01,0 -0.01,0 -0.01,0 -0.02,0 -0.01,0.02 -0.01,0.04 -0.01,0.05 0,0.01 0,0.03 -0.01,0.04 0,0.01 -0.01,0.02 -0.03,0.03 -0.01,0.01 -0.02,0.01 -0.03,0.02 -0.01,0 -0.02,-0.01 -0.03,-0.01 -0.01,-0.01 -0.02,-0.01 -0.03,-0.02 -0.01,-0.01 -0.01,-0.02 -0.01,-0.04 -0.01,-0.03 -0.02,-0.07 -0.05,-0.1 -0.02,-0.03 -0.06,-0.06 -0.09,-0.07 -0.04,0 -0.07,0 -0.1,0.02 -0.03,0.01 -0.05,0.03 -0.07,0.06 -0.02,0.04 -0.01,0.19 -0.06,0.2 -0.02,0 -0.04,-0.02 -0.04,-0.04 -0.04,-0.08 -0.03,-0.19 -0.15,-0.2 -0.04,0 -0.07,0.01 -0.1,0.03 -0.03,0.03 -0.05,0.06 -0.06,0.1 0,0.04 0,0.08 0.02,0.13 0.01,0.04 0.04,0.07 0.07,0.1 0.04,0.04 0,0.05 -0.01,0.08 -0.01,0.02 -0.02,0.04 -0.01,0.07 0,0.02 0,0.04 0.02,0.06 0.02,0.05 0.07,0.06 0.1,0.1 0.03,0.04 0.02,0.11 0.02,0.16 0.02,0.38 0.02,0.77 -0.01,1.15 -0.17,0.95 -0.91,4.16 -1.28,4.78 -0.16,0.26 -0.27,0.49 -0.43,0.78l0.29 0.27c0,0.06 0,0.13 0,0.2 0,0.82 0.01,1.63 0.02,2.45 0,0.21 -0.11,0.35 -0.23,0.53 -0.16,-0.29 -0.3,-0.55 -0.45,-0.82 -0.02,-0.06 -0.02,-0.13 -0.02,-0.19 0,-0.28 0,-0.6 0,-0.91l-0.21 0 -0.23 0.13 0 -0.52 -0.22 0.01c0,-0.08 0.02,-0.16 0.06,-0.23 0.02,-0.02 0.03,-0.04 0.05,-0.06 0.04,-0.03 0.09,-0.05 0.14,-0.05 0.05,0 0.11,-0.01 0.16,-0.02 0,-0.02 0,-0.03 0,-0.05 -0.06,0.01 -0.12,0.01 -0.18,-0.01 -0.06,-0.02 -0.11,-0.04 -0.15,-0.08 -0.04,-0.05 -0.07,-0.11 -0.08,-0.17 -0.01,-0.06 -0.02,-0.12 -0.01,-0.18 -0.02,0 -0.04,0 -0.06,0 0.01,0.09 0,0.17 -0.02,0.26 -0.01,0.02 -0.02,0.05 -0.04,0.07 -0.04,0.04 -0.09,0.07 -0.14,0.08 -0.06,0.02 -0.13,0.02 -0.19,0.02 0,0.01 0,0.04 0,0.05 0.08,-0.01 0.17,-0.01 0.25,0.02 0.02,0.01 0.04,0.02 0.05,0.03 0.05,0.04 0.08,0.09 0.09,0.15 0.02,0.05 0.02,0.11 0.02,0.17l-0.21 0.01 -0.08 0.12 0 0.38c0,0 -0.07,0.05 -0.09,0.05l0 -0.32 -0.38 0.12 0 0.43c0,0 -0.31,0.69 -0.54,1.1 -0.02,-0.03 -0.02,-0.05 -0.03,-0.06 -0.4,-0.59 -0.8,-1.18 -1.2,-1.78 -0.05,-0.07 -0.08,-0.16 -0.09,-0.25 0.01,-0.08 -0.01,-0.16 -0.04,-0.23 -0.03,-0.07 -0.08,-0.13 -0.14,-0.17 -0.08,-0.03 -0.16,-0.05 -0.25,-0.06 -0.01,-0.11 -0.01,-0.22 0,-0.33 0.04,-0.02 0.1,-0.05 0.15,-0.08l-0.01 -0.05c-0.08,-0.01 -0.15,-0.01 -0.23,0 -0.02,0 -0.02,0.1 -0.02,0.14 0,0.17 0,0.32 0,0.32 -0.1,0 -0.18,0.05 -0.25,0.11 -0.07,0.07 -0.11,0.16 -0.12,0.26 0,0.1 -0.04,0.21 -0.09,0.3 -0.42,0.61 -0.86,1.21 -1.28,1.82 -0.05,0.07 -0.08,0.16 -0.08,0.25 -0.02,0.23 -0.02,0.45 -0.02,0.68 0,0.23 -0.03,0.42 -0.04,0.63 0,0.06 0.01,0.12 0.06,0.13 0.05,0.01 0.07,-0.01 0.1,-0.01 0.06,0 0.09,0.07 0.1,0.13 0.01,0.18 0.01,0.35 -0.02,0.53 -0.01,0.24 -0.03,0.48 -0.07,0.72 -0.01,0.05 -0.02,0.1 0,0.14 0.01,0.05 0.03,0.09 0.06,0.13 0.03,0.02 0.06,0.03 0.09,0.06 0.08,0.08 0.05,0.21 0.01,0.32 -0.05,0.17 -0.12,0.34 -0.2,0.5 -0.07,0.12 -0.11,0.27 -0.11,0.42 0,0.02 0,0.04 0.01,0.06 0.01,0.02 0.02,0.03 0.03,0.05 0.09,0.06 0.21,-0.06 0.31,-0.01 0.06,0.03 0.06,0.12 0.04,0.19 -0.05,0.15 -0.13,0.29 -0.22,0.42 -0.11,0.2 -0.08,0.26 0.15,0.32 -0.03,0.12 -0.05,0.24 -0.07,0.36 0,0.04 0,0.09 0,0.13 0.03,0.11 0.18,0.11 0.22,0.24 0.01,0.13 0,0.25 -0.04,0.37 -0.07,0.29 -0.24,0.55 -0.26,0.85 0,0.05 0,0.12 0.05,0.15 0.03,0.01 0.07,0.01 0.11,0l0.27 -0.05c0.05,-0.01 -0.09,0.28 -0.09,0.28 0,0.1 0.03,0.15 0.14,0.19 -0.12,0.28 0.19,0.21 0.37,0.19 0,0 -0.04,0.08 -0.05,0.08 -0.02,0.03 -0.04,0.07 -0.05,0.1 0,0.01 -0.01,0.03 0,0.05 0,0.01 0,0.03 0.01,0.05 0.02,0.03 0.1,0.06 0.09,0.11 0,0.01 0,0.02 -0.01,0.02 -0.04,0.04 -0.09,0.07 -0.15,0.09 -0.1,0.06 -0.19,0.13 -0.28,0.21 0,0.01 -0.01,0.02 -0.02,0.03 0,0.01 0,0.02 -0.01,0.03 0,0.01 -0.01,0.03 -0.01,0.04 0,0.02 0.01,0.04 0.03,0.05 0.02,0 0.03,0.01 0.05,0.01 0.02,0 0.03,-0.01 0.05,-0.01 0.04,-0.02 0.06,-0.05 0.1,-0.07 0.04,-0.02 0.09,-0.05 0.15,-0.07 0.09,-0.05 0.18,-0.1 0.27,-0.16 0.04,-0.01 0.08,-0.07 0.08,-0.09 -0.04,-0.11 0.04,-0.15 0.1,-0.2 0.03,-0.03 0.1,-0.1 0.08,-0.15 -0.01,-0.05 -0.09,-0.08 -0.14,-0.1 -0.01,0 -0.03,-0.01 -0.03,-0.02 0,-0.01 0,-0.01 0,-0.02 0,-0.02 0.01,-0.05 0.03,-0.07 0.01,-0.02 0.03,-0.04 0.06,-0.05 0.14,-0.09 0.13,-0.27 0.12,-0.42 -0.01,-0.12 -0.01,-0.24 0,-0.36 0,-0.08 0.02,-0.15 0.06,-0.22 0.03,-0.06 0.08,-0.12 0.14,-0.16 0.2,0.19 0.17,0.54 0.19,0.79 0,0.1 0.01,0.2 0.03,0.3 0,0 0,0.01 0.01,0.01 0,0.01 0,0.01 0.01,0.01 0,0 0.01,0 0.02,0 0,0 0.02,0.03 0.03,0.05 0.03,0.18 0,0.45 0.23,0.49 0.06,0.01 0.11,0.01 0.17,0.01 0.03,0 0.11,-0.03 0.11,0.03 -0.01,0.02 -0.02,0.05 -0.04,0.07 -0.02,0.02 -0.04,0.04 -0.06,0.05 -0.08,0.06 -0.15,0.12 -0.21,0.18 -0.01,0.01 -0.02,0.02 -0.02,0.04 0,0.01 0,0.01 0,0.02 0.01,0.01 0.01,0.02 0.02,0.02 0.01,0.01 0.02,0.01 0.03,0.01 0.03,0.01 0.06,0.02 0.08,0.02 0.03,0 0.05,0 0.07,-0.01 0.03,0 0.06,0 0.08,-0.01l0.17 -0.03c0.11,-0.02 0.22,-0.04 0.32,-0.07 0.15,-0.03 0.29,-0.07 0.44,-0.11 0.07,-0.01 0.14,-0.03 0.21,-0.06 0.02,-0.01 0.11,-0.06 0.12,0 0,0.01 0,0.02 -0.01,0.02 0,0.01 0,0.01 -0.01,0.01 -0.01,0.02 -0.03,0.03 -0.05,0.03 -0.15,0.06 -0.32,0.11 -0.48,0.16 -0.16,0.03 -0.31,0.1 -0.43,0.21 -0.01,0.01 -0.02,0.02 -0.02,0.03 0,0.01 -0.01,0.01 -0.01,0.02 0,0.01 0.01,0.01 0.01,0.02 0,0 0.01,0.01 0.02,0.01 0.01,0.01 0.02,0.01 0.02,0.01 0.04,0 0.07,0 0.09,-0.01 0.03,-0.01 0.06,-0.01 0.08,0 0.04,0 0.07,-0.02 0.1,-0.03l0.54 -0.22c0.15,-0.05 0.33,-0.18 0.49,-0.18 0,0 0.01,0 0.02,0 0.01,0.01 0,0.04 -0.02,0.05 -0.1,0.08 -0.23,0.14 -0.36,0.17 -0.16,0.06 -0.32,0.11 -0.48,0.17 -0.03,0.02 -0.06,0.01 -0.09,0.03 -0.03,0.01 -0.06,0.03 -0.08,0.05 -0.01,0.01 -0.02,0.03 -0.02,0.05 -0.01,0.02 0,0.04 0,0.05 0.01,0.02 0.03,0.04 0.06,0.05 0.02,0 0.05,0 0.07,0 0.03,-0.01 0.06,-0.01 0.09,-0.02 0.02,-0.01 0.05,-0.02 0.08,-0.04 0.1,-0.04 0.2,-0.07 0.3,-0.1 0.06,-0.03 0.13,-0.06 0.2,-0.07 0.03,-0.01 0.09,-0.02 0.1,0.02 0.02,0.03 -0.03,0.08 -0.07,0.1 -0.09,0.05 -0.18,0.13 -0.17,0.24 0.01,0.02 0.01,0.03 0.03,0.05 0.01,0.01 0.03,0.02 0.05,0.02 0.11,0.01 0.21,-0.02 0.31,-0.07 0.02,-0.01 0.05,-0.03 0.04,-0.06 -0.04,0 -0.07,0 -0.11,0 -0.03,0 -0.07,-0.02 -0.07,-0.05 -0.01,-0.04 0.02,-0.06 0.04,-0.08l0.15 -0.12c0.05,-0.04 0.11,-0.1 0.09,-0.16 -0.02,-0.03 -0.03,-0.05 -0.06,-0.06 -0.02,-0.01 -0.04,-0.01 -0.07,-0.01 0.07,-0.03 0.13,-0.06 0.2,-0.09 0.01,0 0.03,-0.01 0.04,-0.01 0.01,-0.01 0.01,-0.01 0.02,-0.02 0.04,-0.04 0.12,-0.07 0.11,0.01 0,0.02 0,0.04 0.02,0.05 0.02,0.01 0.03,0 0.04,-0.01 0.07,-0.06 0.12,-0.13 0.14,-0.22 0.01,-0.07 0.02,-0.14 0.02,-0.21 0.01,-0.42 0,-0.8 0.32,-1.1 0.19,-0.2 0.34,0.26 0.37,0.38 0.04,0.22 0.07,0.44 0.07,0.66 0,0.11 0,0.22 0,0.33 -0.01,0.1 0.01,0.19 0.06,0.28 0,0.01 0.01,0.01 0.02,0.01 0,0 0.01,-0.01 0.02,-0.02 0,0 0.04,-0.08 0.08,-0.08 0.03,0 0.07,0 0.11,0 0.09,0 0.18,-0.01 0.27,-0.03 0.25,-0.08 0.5,-0.16 0.74,-0.25 0.07,-0.02 0.14,-0.04 0.2,-0.08 0.05,-0.02 0.09,-0.05 0.14,-0.07 0.03,0 0.05,-0.01 0.07,-0.01 0.01,0 0.02,0 0.02,0 0.01,0.01 0.01,0.01 0.01,0.02 0,0.01 0,0.01 -0.01,0.01 0,0.02 -0.01,0.03 -0.02,0.03 -0.1,0.08 -0.21,0.15 -0.32,0.19 -0.08,0.04 -0.15,0.07 -0.22,0.11l-0.01 0c-0.11,0.05 -0.21,0.11 -0.32,0.17l-0.15 0.09c-0.08,0.05 -0.18,0.1 -0.2,0.21 0,0 0,0.01 0,0.01 0,0.01 0.01,0.02 0.01,0.02 0.03,0.02 0.05,0.03 0.08,0.03 0.02,-0.01 0.05,-0.01 0.08,-0.02 0.22,-0.07 0.43,-0.19 0.64,-0.29 0.08,-0.03 0.15,-0.07 0.22,-0.11 0.08,-0.03 0.15,-0.06 0.23,-0.08 0.01,0 0.02,0 0.02,0 0.01,0 0.01,0 0.02,0 0,0 0,0.01 0.01,0.01 0,0 0,0.01 0,0.01 0,0.01 0,0.01 0,0.01 -0.01,0.03 -0.03,0.04 -0.05,0.05 -0.19,0.12 -0.38,0.19 -0.56,0.29 -0.07,0.06 -0.14,0.12 -0.19,0.19 -0.02,0.02 -0.03,0.04 -0.04,0.06 0,0.03 0,0.05 0,0.07 0.02,0.06 0.11,0.07 0.16,0.07 0.08,-0.02 0.15,-0.03 0.22,-0.06 0.04,-0.01 0.07,-0.03 0.1,-0.05 0.02,0 0.03,-0.01 0.03,-0.02 0,-0.01 0,-0.03 -0.01,-0.04 -0.01,-0.01 -0.02,0 -0.03,0 -0.03,0.01 -0.06,0.01 -0.08,0 -0.01,0 -0.02,-0.01 -0.03,-0.01 0,-0.01 0,-0.01 0,-0.01 0,-0.01 -0.01,-0.01 0,-0.01 0,-0.01 0,-0.02 0.01,-0.02 0.03,-0.03 0.06,-0.05 0.09,-0.07l0.12 -0.06c0.06,-0.04 0.13,-0.08 0.2,-0.12 0.06,-0.04 0.17,-0.11 0.25,-0.16 0.07,-0.05 0.15,-0.1 0.22,-0.16 0.01,-0.01 0.02,-0.02 0.03,-0.04 0,0 0,-0.01 0,-0.02 0,0 0,-0.01 0,-0.02 -0.01,-0.01 -0.02,-0.01 -0.03,-0.02 -0.01,0 -0.02,0 -0.03,0 -0.05,0 -0.1,0.01 -0.15,0.02 -0.05,0 -0.1,0.01 -0.15,0.02 -0.04,0.01 -0.13,0.04 -0.19,0.06 -0.01,0 -0.01,0 -0.02,0 0,0 -0.01,0 -0.01,0 0,0 0,0 0,-0.01 0,0 0,0 0,0 0,-0.01 0.01,-0.03 0.02,-0.04 0.03,-0.01 0.05,-0.03 0.08,-0.04l0.08 -0.05c0.06,-0.03 0.12,-0.07 0.17,-0.1 0.08,-0.04 0.15,-0.1 0.19,-0.18 0.01,-0.01 0.01,-0.02 0.01,-0.03 0,-0.01 0,-0.02 -0.01,-0.03 0,-0.01 -0.01,-0.02 -0.02,-0.02 -0.01,-0.01 -0.02,-0.01 -0.03,-0.01 -0.06,-0.01 -0.12,-0.01 -0.18,0l-0.15 0.02c0.07,-0.03 0.14,-0.07 0.2,-0.12 0,-0.01 0.01,-0.01 0.01,-0.02 0,0 0,-0.01 0,-0.01 0.01,-0.01 0.02,-0.02 0.03,-0.03 0.01,-0.02 0.02,-0.03 0.02,-0.05 0,-0.01 0,-0.02 -0.01,-0.02 0,-0.01 -0.01,-0.02 -0.01,-0.02 -0.02,-0.01 -0.04,-0.01 -0.05,0 -0.01,0 -0.03,0 -0.04,0l-0.03 0.01 -0.08 0.01c-0.07,0.02 -0.14,0.03 -0.2,0.05l-0.02 0c-0.01,0 0,-0.02 0,-0.03 0.01,-0.01 0.03,-0.01 0.04,-0.02 0.16,-0.07 0.32,-0.12 0.49,-0.14 0.01,0 0.02,0 0.03,0 0.01,0 0.02,0 0.02,0.01 0.01,0.01 0.01,0.01 0.01,0.02 0.01,0.01 0.01,0.02 0,0.02 0,0.02 -0.01,0.03 -0.02,0.04 -0.01,0.03 -0.02,0.06 -0.03,0.09 0,0.11 0.13,0.08 0.2,0.07 -0.02,-0.37 -0.06,-0.74 0.09,-1.09 0.02,-0.06 0.1,-0.18 0.14,-0.15 0.23,0.14 0.27,1.03 0.31,1.4l0.08 0.01c0.03,-0.15 0.02,-0.28 0.04,-0.43 0.03,-0.14 0.11,-0.28 0.23,-0.38 0.01,0 0.02,-0.02 0.03,-0.01 0.02,0 0.03,0.02 0.03,0.05 -0.01,0.13 -0.16,0.21 -0.2,0.33 -0.01,0.03 -0.01,0.06 -0.01,0.09 0.01,0.03 0.03,0.05 0.05,0.07 0.05,0.03 0.11,0.05 0.16,0.06 -0.06,0.06 -0.12,0.12 -0.18,0.19 -0.03,0.03 -0.05,0.07 -0.06,0.11 -0.01,0.02 -0.01,0.04 -0.01,0.06 0.01,0.02 0.02,0.04 0.03,0.06 0.03,0.02 0.07,0.03 0.1,0.03 0.04,0.01 0.08,0 0.11,-0.02 0.01,0 0.03,-0.01 0.04,-0.01l0.05 -0.01c0.02,-0.01 0.04,-0.01 0.06,0 0.01,0 0.01,0 0.02,0 0,0.01 0,0.01 0,0.02 0,0.01 0,0.02 -0.01,0.02 -0.01,0.02 0,0.04 0.03,0.04 0.01,0 0.02,0 0.03,-0.01 0.01,0 0.02,-0.01 0.03,-0.02 0.03,-0.02 0.05,-0.05 0.08,-0.08 0.01,-0.01 0.02,-0.02 0.02,-0.03 0,-0.01 0.01,-0.03 0,-0.04 0,-0.01 -0.01,-0.02 -0.02,-0.02 -0.01,-0.01 -0.02,-0.02 -0.03,-0.02 -0.07,-0.01 -0.15,0.02 -0.23,0 -0.01,0 -0.01,0 -0.02,0 0,-0.01 -0.01,-0.01 -0.01,-0.02 0,-0.01 0.01,-0.02 0.02,-0.03 0.11,-0.09 0.22,-0.19 0.31,-0.3 0.02,-0.03 0.04,-0.06 0.05,-0.1 0,-0.01 0,-0.02 0,-0.02 0,-0.01 0,-0.02 -0.01,-0.03 0,-0.01 -0.01,-0.01 -0.02,-0.02 -0.01,0 -0.01,-0.01 -0.02,-0.01 -0.02,0 -0.03,0 -0.05,0l-0.09 0.01c-0.03,0.01 -0.05,0.01 -0.08,0.01 -0.03,-0.01 -0.01,-0.04 0,-0.06 0.03,-0.04 0.07,-0.08 0.12,-0.11 0.04,-0.02 0.08,-0.06 0.11,-0.11 0.02,-0.02 0.02,-0.05 0.02,-0.07 0,-0.02 0,-0.04 -0.01,-0.05 0,0 -0.02,-0.04 -0.02,-0.05l0.1 -0.08c0.02,-0.01 0.04,-0.03 0.06,-0.05 0.01,-0.01 0.02,-0.02 0.03,-0.04 0,-0.01 0,-0.02 0,-0.03 0,-0.01 0,-0.02 0,-0.02 -0.02,-0.02 -0.04,-0.02 -0.06,-0.04 -0.01,-0.01 -0.02,-0.02 -0.03,-0.04 -0.03,-0.06 0.03,-0.11 0.07,-0.14 0.05,-0.03 0.13,-0.08 0.18,-0.12 0.04,-0.03 0.08,-0.07 0.1,-0.11 0.06,-0.19 -0.19,-0.09 -0.27,-0.08 0,-0.12 0.11,-0.19 0.19,-0.26 0.11,-0.08 0.2,-0.18 0.27,-0.29 0.02,-0.03 0.03,-0.06 0.04,-0.09 -0.01,-0.03 -0.02,-0.05 -0.04,-0.07 -0.02,-0.02 -0.04,-0.04 -0.07,-0.04l0 -0.01z" fill="#F4F6F0"/>
  </svg>
</svg>
