<svg xmlns="http://www.w3.org/2000/svg" width="2176" height="1408" viewBox="0 0 2176 1408" data-root-width="2176" data-root-height="1408" data-template="COMPONENT_STATE_GRID_V2" data-template-columns="3" data-version="R1"><rect width="100%" height="100%" fill="#F3F5F7"/><rect x="32" y="32" width="2112" height="1344" rx="12" fill="#FFFFFF" stroke="#D1D5DB" data-candidate-root="true"/><rect x="64" y="64" width="2048" height="128" fill="#FFFFFF" stroke="#D1D5DB"/><text x="88" y="116" font-family="DejaVu Sans" font-size="28" font-weight="700" fill="#111827" data-r1-header="true">04.1 · Controls · Buttons · Candidate</text><text x="88" y="156" font-family="DejaVu Sans" font-size="14" font-weight="400" fill="#4B5563" >U0 · U-CONTROLS-BUTTONS-SMALL-PAGE</text><rect x="64" y="256" width="448" height="1088" rx="12" fill="#F8FAFC" stroke="#D1D5DB" data-master-column="true"/><text x="88" y="290" font-family="DejaVu Sans" font-size="14" font-weight="700" fill="#111827" >COMPONENT FAMILY</text><text x="88" y="314" font-family="DejaVu Sans" font-size="14" font-weight="700" fill="#4B5563" >control.button</text><text x="88" y="338" font-family="DejaVu Sans" font-size="12" font-weight="400" fill="#4B5563" >U-CONTROLS-BUTTONS-SMALL-PAGE</text><text x="576" y="240" font-family="DejaVu Sans" font-size="14" font-weight="700" fill="#4B5563" data-family-section="true">family section · immutable review states</text><g data-placement="1" data-label="button.primary.default.default"><rect x="576" y="256" width="400" height="192" rx="12" fill="#FFFFFF" stroke="#E5E7EB"/><rect x="600" y="280" width="352" height="88" rx="8" fill="#F8FAFC" stroke="#E5E7EB"/><text x="600" y="398" font-family="DejaVu Sans" font-size="12" font-weight="700" fill="#111827" >button.primary.default.default</text><text x="600" y="424" font-family="DejaVu Sans" font-size="10" font-weight="400" fill="#6B7280" >U-CONTROLS-BUTTONS-SMALL-PAGE</text></g><g data-placement="2" data-label="button.primary.default.hover"><rect x="1008" y="256" width="400" height="192" rx="12" fill="#FFFFFF" stroke="#E5E7EB"/><rect x="1032" y="280" width="352" height="88" rx="8" fill="#F8FAFC" stroke="#E5E7EB"/><text x="1032" y="398" font-family="DejaVu Sans" font-size="12" font-weight="700" fill="#111827" >button.primary.default.hover</text><text x="1032" y="424" font-family="DejaVu Sans" font-size="10" font-weight="400" fill="#6B7280" >U-CONTROLS-BUTTONS-SMALL-PAGE</text></g><g data-placement="3" data-label="button.primary.default.focus"><rect x="1440" y="256" width="400" height="192" rx="12" fill="#FFFFFF" stroke="#E5E7EB"/><rect x="1464" y="280" width="352" height="88" rx="8" fill="#F8FAFC" stroke="#E5E7EB"/><text x="1464" y="398" font-family="DejaVu Sans" font-size="12" font-weight="700" fill="#111827" >button.primary.default.focus</text><text x="1464" y="424" font-family="DejaVu Sans" font-size="10" font-weight="400" fill="#6B7280" >U-CONTROLS-BUTTONS-SMALL-PAGE</text></g><g data-placement="4" data-label="button.primary.default.pressed"><rect x="576" y="480" width="400" height="192" rx="12" fill="#FFFFFF" stroke="#E5E7EB"/><rect x="600" y="504" width="352" height="88" rx="8" fill="#F8FAFC" stroke="#E5E7EB"/><text x="600" y="622" font-family="DejaVu Sans" font-size="12" font-weight="700" fill="#111827" >button.primary.default.pressed</text><text x="600" y="648" font-family="DejaVu Sans" font-size="10" font-weight="400" fill="#6B7280" >U-CONTROLS-BUTTONS-SMALL-PAGE</text></g><g data-placement="5" data-label="button.primary.default.loading"><rect x="1008" y="480" width="400" height="192" rx="12" fill="#FFFFFF" stroke="#E5E7EB"/><rect x="1032" y="504" width="352" height="88" rx="8" fill="#F8FAFC" stroke="#E5E7EB"/><text x="1032" y="622" font-family="DejaVu Sans" font-size="12" font-weight="700" fill="#111827" >button.primary.default.loading</text><text x="1032" y="648" font-family="DejaVu Sans" font-size="10" font-weight="400" fill="#6B7280" >U-CONTROLS-BUTTONS-SMALL-PAGE</text></g><g data-placement="6" data-label="button.primary.default.disabled"><rect x="1440" y="480" width="400" height="192" rx="12" fill="#FFFFFF" stroke="#E5E7EB"/><rect x="1464" y="504" width="352" height="88" rx="8" fill="#F8FAFC" stroke="#E5E7EB"/><text x="1464" y="622" font-family="DejaVu Sans" font-size="12" font-weight="700" fill="#111827" >button.primary.default.disabled</text><text x="1464" y="648" font-family="DejaVu Sans" font-size="10" font-weight="400" fill="#6B7280" >U-CONTROLS-BUTTONS-SMALL-PAGE</text></g><g data-placement="7" data-label="button.secondary.default.default"><rect x="576" y="704" width="400" height="192" rx="12" fill="#FFFFFF" stroke="#E5E7EB"/><rect x="600" y="728" width="352" height="88" rx="8" fill="#F8FAFC" stroke="#E5E7EB"/><text x="600" y="846" font-family="DejaVu Sans" font-size="12" font-weight="700" fill="#111827" >button.secondary.default.default</text><text x="600" y="872" font-family="DejaVu Sans" font-size="10" font-weight="400" fill="#6B7280" >U-CONTROLS-BUTTONS-SMALL-PAGE</text></g><g data-placement="8" data-label="button.quiet.default.default"><rect x="1008" y="704" width="400" height="192" rx="12" fill="#FFFFFF" stroke="#E5E7EB"/><rect x="1032" y="728" width="352" height="88" rx="8" fill="#F8FAFC" stroke="#E5E7EB"/><text x="1032" y="846" font-family="DejaVu Sans" font-size="12" font-weight="700" fill="#111827" >button.quiet.default.default</text><text x="1032" y="872" font-family="DejaVu Sans" font-size="10" font-weight="400" fill="#6B7280" >U-CONTROLS-BUTTONS-SMALL-PAGE</text></g><g data-placement="9" data-label="button.inverse.default.default"><rect x="1440" y="704" width="400" height="192" rx="12" fill="#FFFFFF" stroke="#E5E7EB"/><rect x="1464" y="728" width="352" height="88" rx="8" fill="#F8FAFC" stroke="#E5E7EB"/><text x="1464" y="846" font-family="DejaVu Sans" font-size="12" font-weight="700" fill="#111827" >button.inverse.default.default</text><text x="1464" y="872" font-family="DejaVu Sans" font-size="10" font-weight="400" fill="#6B7280" >U-CONTROLS-BUTTONS-SMALL-PAGE</text></g><g data-placement="10" data-label="button.danger.default.default"><rect x="576" y="928" width="400" height="192" rx="12" fill="#FFFFFF" stroke="#E5E7EB"/><rect x="600" y="952" width="352" height="88" rx="8" fill="#F8FAFC" stroke="#E5E7EB"/><text x="600" y="1070" font-family="DejaVu Sans" font-size="12" font-weight="700" fill="#111827" >button.danger.default.default</text><text x="600" y="1096" font-family="DejaVu Sans" font-size="10" font-weight="400" fill="#6B7280" >U-CONTROLS-BUTTONS-SMALL-PAGE</text></g><g data-placement="11" data-label="button.primary.compact.default"><rect x="1008" y="928" width="400" height="192" rx="12" fill="#FFFFFF" stroke="#E5E7EB"/><rect x="1032" y="952" width="352" height="88" rx="8" fill="#F8FAFC" stroke="#E5E7EB"/><text x="1032" y="1070" font-family="DejaVu Sans" font-size="12" font-weight="700" fill="#111827" >button.primary.compact.default</text><text x="1032" y="1096" font-family="DejaVu Sans" font-size="10" font-weight="400" fill="#6B7280" >U-CONTROLS-BUTTONS-SMALL-PAGE</text></g><g data-placement="12" data-label="button.secondary.large.default"><rect x="1440" y="928" width="400" height="192" rx="12" fill="#FFFFFF" stroke="#E5E7EB"/><rect x="1464" y="952" width="352" height="88" rx="8" fill="#F8FAFC" stroke="#E5E7EB"/><text x="1464" y="1070" font-family="DejaVu Sans" font-size="12" font-weight="700" fill="#111827" >button.secondary.large.default</text><text x="1464" y="1096" font-family="DejaVu Sans" font-size="10" font-weight="400" fill="#6B7280" >U-CONTROLS-BUTTONS-SMALL-PAGE</text></g><g data-placement="13" data-label="button.secondary.toggle.unselected"><rect x="576" y="1152" width="400" height="192" rx="12" fill="#FFFFFF" stroke="#E5E7EB"/><rect x="600" y="1176" width="352" height="88" rx="8" fill="#F8FAFC" stroke="#E5E7EB"/><text x="600" y="1294" font-family="DejaVu Sans" font-size="12" font-weight="700" fill="#111827" >button.secondary.toggle.unselected</text><text x="600" y="1320" font-family="DejaVu Sans" font-size="10" font-weight="400" fill="#6B7280" >U-CONTROLS-BUTTONS-SMALL-PAGE</text></g><g data-placement="14" data-label="button.secondary.toggle.selected"><rect x="1008" y="1152" width="400" height="192" rx="12" fill="#FFFFFF" stroke="#E5E7EB"/><rect x="1032" y="1176" width="352" height="88" rx="8" fill="#F8FAFC" stroke="#E5E7EB"/><text x="1032" y="1294" font-family="DejaVu Sans" font-size="12" font-weight="700" fill="#111827" >button.secondary.toggle.selected</text><text x="1032" y="1320" font-family="DejaVu Sans" font-size="10" font-weight="400" fill="#6B7280" >U-CONTROLS-BUTTONS-SMALL-PAGE</text></g></svg>