<svg xmlns="http://www.w3.org/2000/svg" width="2176" height="1160" viewBox="0 0 2176 1160" data-root-width="2176" data-root-height="1160" data-template="FOUNDATION_ASSET_GRID_DENSE_V2" data-template-columns="6" data-version="R2"><rect width="100%" height="100%" fill="#F3F5F7"/><rect x="32" y="32" width="2112" height="1096" rx="12" fill="#FFFFFF" stroke="#D1D5DB" data-candidate-root="true"/><g data-component="ATLAS_PAGE_HEADER_V2"><rect x="64" y="64" width="2048" height="128" fill="#FFFFFF" stroke="#D1D5DB"/><rect x="64" y="136" width="2048" height="56" fill="#F8FAFC" stroke="#D1D5DB"/><text x="88" y="108" font-family="DejaVu Sans" font-size="12" font-weight="700" fill="#4B5563" data-semantic-id="atlas.header.top.section">foundations-medallions</text><text x="264" y="112" font-family="DejaVu Sans" font-size="28" font-weight="700" fill="#111827" data-semantic-id="atlas.header.top.page-title">04.1 · Assets · Medallions · Institutions A · Candidate</text><rect x="1988" y="86" width="100" height="28" rx="14" fill="#FEF3C7" stroke="#F59E0B" data-semantic-id="atlas.header.top.lifecycle-status"/><text x="2006" y="105" font-family="DejaVu Sans" font-size="12" font-weight="700" fill="#78350F" >CANDIDATE</text><text x="88" y="158" font-family="DejaVu Sans" font-size="10" font-weight="700" fill="#6B7280" >OWNER</text><text x="88" y="177" font-family="DejaVu Sans" font-size="12" font-weight="400" fill="#4B5563" data-semantic-id="atlas.header.meta.owner">F0</text><text x="268" y="158" font-family="DejaVu Sans" font-size="10" font-weight="700" fill="#6B7280" >PACKAGE_ID</text><text x="268" y="177" font-family="DejaVu Sans" font-size="12" font-weight="400" fill="#4B5563" data-semantic-id="atlas.header.meta.package-id">F-MEDALLIONS-INSTITUTIONS-A</text><text x="568" y="158" font-family="DejaVu Sans" font-size="10" font-weight="700" fill="#6B7280" >SOURCE_OR_FIXTURE</text><text x="568" y="177" font-family="DejaVu Sans" font-size="12" font-weight="400" fill="#4B5563" data-semantic-id="atlas.header.meta.source-or-fixture">F-MEDALLIONS-BRAND-ASSETS.package.v3.json</text><text x="998" y="158" font-family="DejaVu Sans" font-size="10" font-weight="700" fill="#6B7280" >VIEWPORT_AND_STATES</text><text x="998" y="177" font-family="DejaVu Sans" font-size="12" font-weight="400" fill="#4B5563" data-semantic-id="atlas.header.meta.viewport-and-state-coverage">—</text><text x="1388" y="158" font-family="DejaVu Sans" font-size="10" font-weight="700" fill="#6B7280" >V0_STATUS</text><text x="1388" y="177" font-family="DejaVu Sans" font-size="12" font-weight="400" fill="#4B5563" data-semantic-id="atlas.header.meta.v0-status">CANDIDATE</text><text x="1538" y="158" font-family="DejaVu Sans" font-size="10" font-weight="700" fill="#6B7280" >LAST_REVIEWED_REVISION</text><text x="1538" y="177" font-family="DejaVu Sans" font-size="12" font-weight="400" fill="#4B5563" data-semantic-id="atlas.header.meta.last-reviewed-revision">3</text></g><rect x="64" y="256" width="320" height="840" rx="12" fill="#F8FAFC" stroke="#D1D5DB" data-master-column="true"/><text x="88" y="290" font-family="DejaVu Sans" font-size="14" font-weight="700" fill="#111827" >PACKAGE MASTERS</text><text x="88" y="314" font-family="DejaVu Sans" font-size="12" font-weight="400" fill="#4B5563" >F-MEDALLIONS-INSTITUTIONS-A</text><text x="88" y="338" font-family="DejaVu Sans" font-size="12" font-weight="400" fill="#6B7280" >immutable source-bound components</text><g data-placement="1" data-label="organizer:world-ocean-museum"><rect x="416" y="256" width="256" height="192" rx="12" fill="#FFFFFF" stroke="#E5E7EB"/><rect x="432" y="272" width="224" height="104" rx="8" fill="#F8FAFC" stroke="#E5E7EB"/><text x="432" y="406" font-family="DejaVu Sans" font-size="12" font-weight="700" fill="#111827" >organizer:world-ocean-museum</text><text x="432" y="428" font-family="DejaVu Sans" font-size="10" font-weight="400" fill="#6B7280" >F-MEDALLIONS-INSTITUTIONS-A</text></g><g data-placement="2" data-label="organizer:history-art-museum"><rect x="696" y="256" width="256" height="192" rx="12" fill="#FFFFFF" stroke="#E5E7EB"/><rect x="712" y="272" width="224" height="104" rx="8" fill="#F8FAFC" stroke="#E5E7EB"/><text x="712" y="406" font-family="DejaVu Sans" font-size="12" font-weight="700" fill="#111827" >organizer:history-art-museum</text><text x="712" y="428" font-family="DejaVu Sans" font-size="10" font-weight="400" fill="#6B7280" >F-MEDALLIONS-INSTITUTIONS-A</text></g><g data-placement="3" data-label="organizer:kaliningrad-philharmonic"><rect x="976" y="256" width="256" height="192" rx="12" fill="#FFFFFF" stroke="#E5E7EB"/><rect x="992" y="272" width="224" height="104" rx="8" fill="#F8FAFC" stroke="#E5E7EB"/><text x="992" y="406" font-family="DejaVu Sans" font-size="12" font-weight="700" fill="#111827" >organizer:kaliningrad-philharmonic</text><text x="992" y="428" font-family="DejaVu Sans" font-size="10" font-weight="400" fill="#6B7280" >F-MEDALLIONS-INSTITUTIONS-A</text></g><g data-placement="4" data-label="organizer:kant-island"><rect x="1256" y="256" width="256" height="192" rx="12" fill="#FFFFFF" stroke="#E5E7EB"/><rect x="1272" y="272" width="224" height="104" rx="8" fill="#F8FAFC" stroke="#E5E7EB"/><text x="1272" y="406" font-family="DejaVu Sans" font-size="12" font-weight="700" fill="#111827" >organizer:kant-island</text><text x="1272" y="428" font-family="DejaVu Sans" font-size="10" font-weight="400" fill="#6B7280" >F-MEDALLIONS-INSTITUTIONS-A</text></g><g data-placement="5" data-label="organizer:dom-kitoboya"><rect x="1536" y="256" width="256" height="192" rx="12" fill="#FFFFFF" stroke="#E5E7EB"/><rect x="1552" y="272" width="224" height="104" rx="8" fill="#F8FAFC" stroke="#E5E7EB"/><text x="1552" y="406" font-family="DejaVu Sans" font-size="12" font-weight="700" fill="#111827" >organizer:dom-kitoboya</text><text x="1552" y="428" font-family="DejaVu Sans" font-size="10" font-weight="400" fill="#6B7280" >F-MEDALLIONS-INSTITUTIONS-A</text></g><g data-placement="6" data-label="organizer:tretyakovka-kaliningrad"><rect x="1816" y="256" width="256" height="192" rx="12" fill="#FFFFFF" stroke="#E5E7EB"/><rect x="1832" y="272" width="224" height="104" rx="8" fill="#F8FAFC" stroke="#E5E7EB"/><text x="1832" y="406" font-family="DejaVu Sans" font-size="12" font-weight="700" fill="#111827" >organizer:tretyakovka-kaliningrad</text><text x="1832" y="428" font-family="DejaVu Sans" font-size="10" font-weight="400" fill="#6B7280" >F-MEDALLIONS-INSTITUTIONS-A</text></g><g data-placement="7" data-label="organizer:konb"><rect x="416" y="472" width="256" height="192" rx="12" fill="#FFFFFF" stroke="#E5E7EB"/><rect x="432" y="488" width="224" height="104" rx="8" fill="#F8FAFC" stroke="#E5E7EB"/><text x="432" y="622" font-family="DejaVu Sans" font-size="12" font-weight="700" fill="#111827" >organizer:konb</text><text x="432" y="644" font-family="DejaVu Sans" font-size="10" font-weight="400" fill="#6B7280" >F-MEDALLIONS-INSTITUTIONS-A</text></g><g data-placement="8" data-label="organizer:act-opus"><rect x="696" y="472" width="256" height="192" rx="12" fill="#FFFFFF" stroke="#E5E7EB"/><rect x="712" y="488" width="224" height="104" rx="8" fill="#F8FAFC" stroke="#E5E7EB"/><text x="712" y="622" font-family="DejaVu Sans" font-size="12" font-weight="700" fill="#111827" >organizer:act-opus</text><text x="712" y="644" font-family="DejaVu Sans" font-size="10" font-weight="400" fill="#6B7280" >F-MEDALLIONS-INSTITUTIONS-A</text></g><g data-placement="9" data-label="organizer:znanie-russia"><rect x="976" y="472" width="256" height="192" rx="12" fill="#FFFFFF" stroke="#E5E7EB"/><rect x="992" y="488" width="224" height="104" rx="8" fill="#F8FAFC" stroke="#E5E7EB"/><text x="992" y="622" font-family="DejaVu Sans" font-size="12" font-weight="700" fill="#111827" >organizer:znanie-russia</text><text x="992" y="644" font-family="DejaVu Sans" font-size="10" font-weight="400" fill="#6B7280" >F-MEDALLIONS-INSTITUTIONS-A</text></g><g data-placement="10" data-label="organizer:kgd80"><rect x="1256" y="472" width="256" height="192" rx="12" fill="#FFFFFF" stroke="#E5E7EB"/><rect x="1272" y="488" width="224" height="104" rx="8" fill="#F8FAFC" stroke="#E5E7EB"/><text x="1272" y="622" font-family="DejaVu Sans" font-size="12" font-weight="700" fill="#111827" >organizer:kgd80</text><text x="1272" y="644" font-family="DejaVu Sans" font-size="10" font-weight="400" fill="#6B7280" >F-MEDALLIONS-INSTITUTIONS-A</text></g><g data-placement="11" data-label="organizer:kantata-festival"><rect x="1536" y="472" width="256" height="192" rx="12" fill="#FFFFFF" stroke="#E5E7EB"/><rect x="1552" y="488" width="224" height="104" rx="8" fill="#F8FAFC" stroke="#E5E7EB"/><text x="1552" y="622" font-family="DejaVu Sans" font-size="12" font-weight="700" fill="#111827" >organizer:kantata-festival</text><text x="1552" y="644" font-family="DejaVu Sans" font-size="10" font-weight="400" fill="#6B7280" >F-MEDALLIONS-INSTITUTIONS-A</text></g><g data-placement="12" data-label="organizer:kaup"><rect x="1816" y="472" width="256" height="192" rx="12" fill="#FFFFFF" stroke="#E5E7EB"/><rect x="1832" y="488" width="224" height="104" rx="8" fill="#F8FAFC" stroke="#E5E7EB"/><text x="1832" y="622" font-family="DejaVu Sans" font-size="12" font-weight="700" fill="#111827" >organizer:kaup</text><text x="1832" y="644" font-family="DejaVu Sans" font-size="10" font-weight="400" fill="#6B7280" >F-MEDALLIONS-INSTITUTIONS-A</text></g><g data-placement="13" data-label="organizer:dramteatr39"><rect x="416" y="688" width="256" height="192" rx="12" fill="#FFFFFF" stroke="#E5E7EB"/><rect x="432" y="704" width="224" height="104" rx="8" fill="#F8FAFC" stroke="#E5E7EB"/><text x="432" y="838" font-family="DejaVu Sans" font-size="12" font-weight="700" fill="#111827" >organizer:dramteatr39</text><text x="432" y="860" font-family="DejaVu Sans" font-size="10" font-weight="400" fill="#6B7280" >F-MEDALLIONS-INSTITUTIONS-A</text></g><g data-placement="14" data-label="organizer:yantar-hall"><rect x="696" y="688" width="256" height="192" rx="12" fill="#FFFFFF" stroke="#E5E7EB"/><rect x="712" y="704" width="224" height="104" rx="8" fill="#F8FAFC" stroke="#E5E7EB"/><text x="712" y="838" font-family="DejaVu Sans" font-size="12" font-weight="700" fill="#111827" >organizer:yantar-hall</text><text x="712" y="860" font-family="DejaVu Sans" font-size="10" font-weight="400" fill="#6B7280" >F-MEDALLIONS-INSTITUTIONS-A</text></g><g data-placement="15" data-label="organizer:muzteatr39"><rect x="976" y="688" width="256" height="192" rx="12" fill="#FFFFFF" stroke="#E5E7EB"/><rect x="992" y="704" width="224" height="104" rx="8" fill="#F8FAFC" stroke="#E5E7EB"/><text x="992" y="838" font-family="DejaVu Sans" font-size="12" font-weight="700" fill="#111827" >organizer:muzteatr39</text><text x="992" y="860" font-family="DejaVu Sans" font-size="10" font-weight="400" fill="#6B7280" >F-MEDALLIONS-INSTITUTIONS-A</text></g><g data-placement="16" data-label="organizer:dom-iskusstv"><rect x="1256" y="688" width="256" height="192" rx="12" fill="#FFFFFF" stroke="#E5E7EB"/><rect x="1272" y="704" width="224" height="104" rx="8" fill="#F8FAFC" stroke="#E5E7EB"/><text x="1272" y="838" font-family="DejaVu Sans" font-size="12" font-weight="700" fill="#111827" >organizer:dom-iskusstv</text><text x="1272" y="860" font-family="DejaVu Sans" font-size="10" font-weight="400" fill="#6B7280" >F-MEDALLIONS-INSTITUTIONS-A</text></g><g data-placement="17" data-label="organizer:city-jazz-club"><rect x="1536" y="688" width="256" height="192" rx="12" fill="#FFFFFF" stroke="#E5E7EB"/><rect x="1552" y="704" width="224" height="104" rx="8" fill="#F8FAFC" stroke="#E5E7EB"/><text x="1552" y="838" font-family="DejaVu Sans" font-size="12" font-weight="700" fill="#111827" >organizer:city-jazz-club</text><text x="1552" y="860" font-family="DejaVu Sans" font-size="10" font-weight="400" fill="#6B7280" >F-MEDALLIONS-INSTITUTIONS-A</text></g><g data-placement="18" data-label="organizer:rostec-arena"><rect x="1816" y="688" width="256" height="192" rx="12" fill="#FFFFFF" stroke="#E5E7EB"/><rect x="1832" y="704" width="224" height="104" rx="8" fill="#F8FAFC" stroke="#E5E7EB"/><text x="1832" y="838" font-family="DejaVu Sans" font-size="12" font-weight="700" fill="#111827" >organizer:rostec-arena</text><text x="1832" y="860" font-family="DejaVu Sans" font-size="10" font-weight="400" fill="#6B7280" >F-MEDALLIONS-INSTITUTIONS-A</text></g><g data-placement="19" data-label="organizer:bar-bastion"><rect x="416" y="904" width="256" height="192" rx="12" fill="#FFFFFF" stroke="#E5E7EB"/><rect x="432" y="920" width="224" height="104" rx="8" fill="#F8FAFC" stroke="#E5E7EB"/><text x="432" y="1054" font-family="DejaVu Sans" font-size="12" font-weight="700" fill="#111827" >organizer:bar-bastion</text><text x="432" y="1076" font-family="DejaVu Sans" font-size="10" font-weight="400" fill="#6B7280" >F-MEDALLIONS-INSTITUTIONS-A</text></g><g data-placement="20" data-label="organizer:signal"><rect x="696" y="904" width="256" height="192" rx="12" fill="#FFFFFF" stroke="#E5E7EB"/><rect x="712" y="920" width="224" height="104" rx="8" fill="#F8FAFC" stroke="#E5E7EB"/><text x="712" y="1054" font-family="DejaVu Sans" font-size="12" font-weight="700" fill="#111827" >organizer:signal</text><text x="712" y="1076" font-family="DejaVu Sans" font-size="10" font-weight="400" fill="#6B7280" >F-MEDALLIONS-INSTITUTIONS-A</text></g><g data-placement="21" data-label="organizer:mumod"><rect x="976" y="904" width="256" height="192" rx="12" fill="#FFFFFF" stroke="#E5E7EB"/><rect x="992" y="920" width="224" height="104" rx="8" fill="#F8FAFC" stroke="#E5E7EB"/><text x="992" y="1054" font-family="DejaVu Sans" font-size="12" font-weight="700" fill="#111827" >organizer:mumod</text><text x="992" y="1076" font-family="DejaVu Sans" font-size="10" font-weight="400" fill="#6B7280" >F-MEDALLIONS-INSTITUTIONS-A</text></g><g data-placement="22" data-label="organizer:kldzoo"><rect x="1256" y="904" width="256" height="192" rx="12" fill="#FFFFFF" stroke="#E5E7EB"/><rect x="1272" y="920" width="224" height="104" rx="8" fill="#F8FAFC" stroke="#E5E7EB"/><text x="1272" y="1054" font-family="DejaVu Sans" font-size="12" font-weight="700" fill="#111827" >organizer:kldzoo</text><text x="1272" y="1076" font-family="DejaVu Sans" font-size="10" font-weight="400" fill="#6B7280" >F-MEDALLIONS-INSTITUTIONS-A</text></g><g data-placement="23" data-label="organizer:locostandup"><rect x="1536" y="904" width="256" height="192" rx="12" fill="#FFFFFF" stroke="#E5E7EB"/><rect x="1552" y="920" width="224" height="104" rx="8" fill="#F8FAFC" stroke="#E5E7EB"/><text x="1552" y="1054" font-family="DejaVu Sans" font-size="12" font-weight="700" fill="#111827" >organizer:locostandup</text><text x="1552" y="1076" font-family="DejaVu Sans" font-size="10" font-weight="400" fill="#6B7280" >F-MEDALLIONS-INSTITUTIONS-A</text></g><g data-placement="24" data-label="organizer:kaliningrad-art-museum"><rect x="1816" y="904" width="256" height="192" rx="12" fill="#FFFFFF" stroke="#E5E7EB"/><rect x="1832" y="920" width="224" height="104" rx="8" fill="#F8FAFC" stroke="#E5E7EB"/><text x="1832" y="1054" font-family="DejaVu Sans" font-size="12" font-weight="700" fill="#111827" >organizer:kaliningrad-art-museum</text><text x="1832" y="1076" font-family="DejaVu Sans" font-size="10" font-weight="400" fill="#6B7280" >F-MEDALLIONS-INSTITUTIONS-A</text></g></svg>