<svg xmlns="http://www.w3.org/2000/svg" width="720" height="1120" viewBox="0 0 720 1120">
<style>
  .bg { fill: #f2f2ef; }
  .board { fill: #fbfbf9; stroke: #d7d7d1; stroke-width: 2; }
  .screen { fill: #f8f8f5; stroke: #bdbdb6; stroke-width: 2; }
  .device { fill: #232322; }
  .skeleton { fill: #e2e2dd; }
  .skeleton-strong { fill: #cecec7; }
  .control { fill: #ffffff; stroke: #c6c6bf; stroke-width: 1.5; }
  .control-active { fill: #2d2d2b; }
  .glyph { fill: none; stroke: #343432; stroke-width: 2.5; stroke-linecap: round; stroke-linejoin: round; }
  .glyph-on-dark { fill: none; stroke: #ffffff; stroke-width: 2.5; stroke-linecap: round; stroke-linejoin: round; }
  .divider { stroke: #deded8; stroke-width: 1.5; }
  .safe { fill: none; stroke: #a6a69f; stroke-width: 1.5; stroke-dasharray: 7 7; }
  .occlusion { fill: #d7d7d1; fill-opacity: .28; stroke: #a7a79f; stroke-width: 1.25; stroke-dasharray: 5 5; }
  .callout { fill: none; stroke: #777770; stroke-width: 1.5; }
  .dot { fill: #777770; }
  .title { font-family: Inter, Arial, sans-serif; font-size: 34px; font-weight: 700; fill: #252523; }
  .subtitle { font-family: Inter, Arial, sans-serif; font-size: 17px; font-weight: 450; fill: #686862; }
  .label { font-family: Inter, Arial, sans-serif; font-size: 16px; font-weight: 650; fill: #333330; }
  .small { font-family: Inter, Arial, sans-serif; font-size: 13px; font-weight: 450; fill: #6c6c66; }
  .micro { font-family: Inter, Arial, sans-serif; font-size: 11px; font-weight: 600; fill: #75756e; letter-spacing: .7px; }
</style>
<rect class="bg" width="720" height="1120"/>
<text class="title" x="54" y="62">B · Split dock + context island</text>
<text class="subtitle" x="54" y="92">Действие отделено от навигации, context — от utility</text>
<g transform="translate(153,136)"><rect class="device" x="0" y="0" width="414" height="868" rx="48"/>
<rect class="screen" x="12" y="12" width="390" height="844" rx="38"/>
<rect class="safe" x="28" y="30" width="358" height="806" rx="28"/>
<rect class="skeleton-strong" x="34" y="120" width="346" height="180.0" rx="20"/>
<rect class="skeleton-strong" x="34" y="324.0" width="242.2" height="18" rx="9"/>
<rect class="skeleton" x="34" y="354.0" width="314.9" height="12" rx="6"/>
<rect class="skeleton" x="34" y="374.0" width="269.9" height="12" rx="6"/>
<rect class="skeleton" x="34" y="410.0" width="346" height="108" rx="18"/>
<rect class="skeleton-strong" x="50" y="427.0" width="72" height="72" rx="14"/>
<rect class="skeleton-strong" x="138" y="432.0" width="216.0" height="13" rx="6.5"/>
<rect class="skeleton-strong" x="138" y="457.0" width="155.5" height="10" rx="5"/>
<rect class="skeleton-strong" x="138" y="477.0" width="118.8" height="10" rx="5"/>
<rect class="skeleton" x="34" y="538.0" width="346" height="108" rx="18"/>
<rect class="skeleton-strong" x="50" y="555.0" width="72" height="72" rx="14"/>
<rect class="skeleton-strong" x="138" y="560.0" width="216.0" height="13" rx="6.5"/>
<rect class="skeleton-strong" x="138" y="585.0" width="155.5" height="10" rx="5"/>
<rect class="skeleton-strong" x="138" y="605.0" width="118.8" height="10" rx="5"/>
<rect class="control" x="32" y="40" width="48" height="48" rx="24"/>
<path class="glyph" d="M 57 56 L 49 64 L 57 72 M 50 64 H 62"/>
<rect class="control" x="124" y="40" width="166" height="48" rx="24"/>
<circle class="skeleton-strong" cx="152" cy="64" r="9"/>
<rect class="skeleton-strong" x="172" y="58" width="82" height="12" rx="6"/>
<rect class="control" x="334" y="40" width="48" height="48" rx="24"/>
<circle class="glyph" cx="358" cy="57" r="2"/><circle class="glyph" cx="350" cy="69" r="2"/><circle class="glyph" cx="366" cy="69" r="2"/><path class="glyph" d="M 352 67 L 356 60 M 360 60 L 364 67"/>
<rect class="occlusion" x="24" y="740" width="366" height="88" rx="34"/>
<rect class="control-active" x="32" y="772" width="116" height="58" rx="29"/>
<path class="glyph-on-dark" d="M 54 801 H 68 M 61 794 V 808"/>
<rect fill="#ffffff" x="82" y="795" width="42" height="12" rx="6"/>
<rect class="control" x="164" y="772" width="218" height="58" rx="29"/>
<circle fill="#4a4a46" cx="207.6" cy="800" r="5"/>
<circle fill="#4a4a46" cx="273.0" cy="800" r="5"/>
<rect class="control-active" x="314.4" y="781" width="48" height="38" rx="19"/>
<circle fill="#ffffff" cx="338.4" cy="800" r="5"/></g>
<text class="micro" x="54" y="1055">SEMANTIC SKELETON · NOT RASTER-TRACED</text>
<text class="small" x="54" y="1082">Форма поверхностей показана как гипотеза композиции, не как контракт.</text>
</svg>